# xmcd CD database file
#
# Track frame offsets:
#	150
#	13995
#	21636
#	39530
#	60544
#	73883
#	92374
#	110644
#	122622
#
# Disc length: 1830 seconds
#
# Revision: 0
# Processed by: cddbd v1.5.1PL2 Copyright (c) Steve Scherf et al.
# Submitted via: CDex 1.51
#
DISCID=7c072409
DTITLE=Jazzed -Up- - Jazzed -Up-
DYEAR=2005
DGENRE=Jazz
TTITLE0=No Moon At All
TTITLE1=A Lot Of Livin' To Do
TTITLE2=Blue Moon
TTITLE3=Blue Holiday
TTITLE4=Goldilocks
TTITLE5=Whatever Lola Wants
TTITLE6=Born To Be Blue
TTITLE7=Goody Goody
TTITLE8=All Of Me
EXTD=YEAR: 2005
EXTT0=
EXTT1=
EXTT2=
EXTT3=
EXTT4=
EXTT5=
EXTT6=
EXTT7=
EXTT8=
PLAYORDER=
